<svg xmlns="http://www.w3.org/2000/svg" xmlns:xlink="http://www.w3.org/1999/xlink" fill="#000000" version="1.1" x="0px" y="0px" viewBox="0 0 100 100" enable-background="new 0 0 100 100" xml:space="preserve"><g><g><path d="M50,28.017c-12.121,0-21.983,9.861-21.983,21.983S37.879,71.983,50,71.983S71.983,62.121,71.983,50    S62.121,28.017,50,28.017z M50,68.879c-10.41,0-18.879-8.469-18.879-18.879S39.59,31.121,50,31.121S68.879,39.59,68.879,50    S60.41,68.879,50,68.879z"/><path d="M64.741,5H35.259C18.574,5,5,18.574,5,35.259v29.483C5,81.426,18.574,95,35.259,95h29.483C81.426,95,95,81.426,95,64.741    V35.259C95,18.574,81.426,5,64.741,5z M91.897,64.741c0,14.973-12.182,27.155-27.155,27.155H35.259    c-14.973,0-27.155-12.182-27.155-27.155V35.259c0-14.973,12.182-27.155,27.155-27.155h29.483    c14.973,0,27.155,12.182,27.155,27.155V64.741z"/><path d="M74.569,18.319c-3.922,0-7.112,3.19-7.112,7.112s3.19,7.112,7.112,7.112c3.922,0,7.112-3.19,7.112-7.112    S78.491,18.319,74.569,18.319z M74.569,29.44c-2.21,0-4.009-1.798-4.009-4.009s1.798-4.009,4.009-4.009    c2.21,0,4.009,1.798,4.009,4.009S76.779,29.44,74.569,29.44z"/></g></g></svg>
